 <svg  version="1.0" xmlns="http://www.w3.org/2000/svg"  width="300.000000pt" height="300.000000pt" viewBox="0 0 300.000000 300.000000"  preserveAspectRatio="xMidYMid meet">  <g transform="translate(0.000000,300.000000) scale(0.100000,-0.100000)" fill="#0053f7" stroke="none"> <path d="M1135 2794 c-465 -27 -627 -54 -722 -117 -90 -60 -141 -167 -167 -352 -52 -357 -57 -1148 -11 -1555 27 -234 63 -337 144 -413 60 -56 130 -82 284 -106 254 -40 358 -46 852 -46 399 0 506 3 633 18 308 36 395 61 474 135 94 87 126 202 153 542 31 387 16 1279 -25 1480 -40 194 -109 287 -250 336 -54 19 -255 51 -395 64 -116 11 -847 21 -970 14z m69 -500 c14 -13 16 -57 16 -325 0 -188 4 -309 9 -309 10 0 152 164 404 467 l152 183 180 -3 c177 -2 180 -2 180 -24 0 -20 -64 -95 -424 -493 -72 -80 -131 -150 -131 -156 0 -6 8 -22 19 -35 93 -120 582 -834 579 -847 -3 -15 -23 -17 -192 -17 l-189 0 -154 220 c-271 389 -297 425 -311 425 -7 0 -38 -23 -68 -51 l-54 -52 0 -257 c0 -190 -3 -261 -13 -273 -11 -16 -30 -17 -167 -15 l-155 3 -3 774 c-1 563 1 777 9 787 18 22 292 20 313 -2z"/> </g> </svg> 