<?xml version="1.0" standalone="no"?>
<!DOCTYPE svg PUBLIC "-//W3C//DTD SVG 20010904//EN"
 "http://www.w3.org/TR/2001/REC-SVG-20010904/DTD/svg10.dtd">
<svg version="1.0" xmlns="http://www.w3.org/2000/svg"
 width="300.000000pt" height="87.000000pt" viewBox="0 0 300.000000 87.000000"
 preserveAspectRatio="xMidYMid meet">
<metadata>
Created by potrace 1.10, written by Peter Selinger 2001-2011
</metadata>
<g transform="translate(0.000000,87.000000) scale(0.100000,-0.100000)"
fill="#ffffff" stroke="none">
<path d="M257 769 c-150 -13 -165 -36 -174 -257 -6 -163 8 -322 32 -358 8 -13
32 -28 52 -34 58 -17 364 -25 463 -11 142 18 156 50 153 361 -2 178 -15 244
-54 272 -43 33 -269 45 -472 27z m103 -211 l1 -73 65 73 66 72 59 0 c32 0 59
-3 59 -7 0 -4 -32 -39 -70 -78 l-70 -71 86 -112 85 -112 -64 0 -63 0 -54 70
c-62 82 -66 86 -85 70 -10 -9 -15 -33 -15 -77 l0 -64 -52 3 -53 3 -1 161 c-2
218 -3 214 57 214 l49 0 0 -72z"/>
<path d="M1500 460 l0 -170 30 0 c17 0 30 5 30 10 0 6 13 4 30 -5 37 -19 54
-19 95 1 59 28 80 104 49 170 -28 58 -87 78 -144 49 l-30 -16 0 66 0 65 -30 0
-30 0 0 -170z m165 -4 c13 -9 19 -26 19 -51 0 -25 -6 -42 -19 -51 -42 -31 -95
-4 -95 49 0 56 51 85 95 53z"/>
<path d="M2103 623 c-12 -2 -33 -15 -47 -28 -20 -19 -26 -34 -26 -68 0 -55 25
-81 95 -98 63 -15 77 -26 73 -58 -3 -23 -8 -26 -45 -29 -36 -3 -44 1 -59 22
-11 18 -25 26 -46 26 -26 0 -29 -3 -23 -22 13 -43 34 -66 71 -78 73 -25 146 7
166 71 10 35 9 43 -9 67 -23 32 -52 48 -110 62 -50 13 -71 41 -47 64 22 22 71
20 91 -4 15 -18 73 -29 73 -15 0 25 -36 65 -70 79 -41 16 -47 17 -87 9z"/>
<path d="M2300 460 l0 -170 25 0 c24 0 25 3 25 59 0 76 13 109 45 117 47 12
65 -18 65 -103 l0 -73 30 0 30 0 0 91 c0 87 -1 92 -30 121 -31 31 -54 33 -117
13 -22 -7 -23 -5 -23 54 0 58 -1 61 -25 61 l-25 0 0 -170z"/>
<path d="M2571 616 c-21 -26 -9 -51 24 -51 27 0 30 3 30 30 0 23 -5 31 -21 33
-11 2 -26 -4 -33 -12z"/>
<path d="M940 456 l0 -166 30 0 c28 0 30 2 30 41 0 29 7 50 24 70 l25 29 48
-70 c45 -66 50 -70 86 -70 20 0 37 2 37 5 0 3 -29 45 -64 94 l-65 89 60 68
c58 67 58 69 33 72 -39 5 -47 0 -112 -77 l-61 -71 -3 73 -3 72 -32 3 -33 3 0
-165z"/>
<path d="M1855 523 c-88 -23 -114 -139 -46 -207 27 -26 39 -31 82 -31 45 0 54
4 82 35 l31 35 -33 3 c-18 2 -38 -1 -44 -7 -15 -15 -70 -14 -85 1 -30 30 -13
38 73 38 l85 0 0 33 c0 42 -24 75 -66 93 -34 14 -45 15 -79 7z m67 -60 c29
-26 21 -33 -37 -33 -59 0 -64 4 -38 32 20 22 51 23 75 1z"/>
<path d="M2748 514 c-16 -8 -28 -10 -28 -4 0 5 -11 10 -25 10 l-25 0 0 -161 0
-160 28 3 c25 3 27 7 30 56 3 52 3 52 25 37 45 -32 114 -8 141 49 53 112 -45
225 -146 170z m82 -64 c56 -56 -23 -146 -82 -93 -10 9 -18 30 -18 46 0 60 59
88 100 47z"/>
<path d="M1242 426 c2 -74 7 -98 22 -114 26 -29 70 -37 106 -19 16 9 30 11 30
6 0 -5 14 -9 30 -9 l30 0 0 115 0 115 -30 0 -30 0 0 -71 c0 -86 -11 -109 -50
-109 -39 0 -50 23 -50 109 l0 71 -31 0 -31 0 4 -94z"/>
<path d="M2560 405 l0 -115 35 0 35 0 -1 115 -1 115 -34 0 -34 0 0 -115z"/>
</g>
</svg>
